# xmcd
#
# Track frame offsets:
#	150
#	15377
#	30094
#	52849
#	67647
#	81005
#	99637
#	119813
#	133207
#	144940
#	157289
#	174635
#
# Disc length: 2504 seconds
# Revision: 0
# Processed by: cddbd v1.5.2PL0 Copyright (c) Steve Scherf et al.
# Submitted via: dBpowerAMP V12.0
#
DISCID=9509c60c
DTITLE=Gary Boyle - Now I Know
DYEAR=2006
DGENRE=Country
TTITLE0=Now I Know
TTITLE1=Lights on the Hill
TTITLE2=Camooweal
TTITLE3=Help Me Make It Through the Night
TTITLE4=Born a Canadian
TTITLE5=26 Good Workin' Boys
TTITLE6=Fields of Athenry
TTITLE7=Life's a Crooked Highway
TTITLE8=Carry Me Through
TTITLE9=The River and Me
TTITLE10=Blue Umbrella
TTITLE11=Changing Seasons
EXTD=
EXTT0=
EXTT1=
EXTT2=
EXTT3=
EXTT4=
EXTT5=
EXTT6=
EXTT7=
EXTT8=
EXTT9=
EXTT10=
EXTT11=
PLAYORDER=
